<?xml version="1.0" encoding="UTF-8"?>
<svg width="186px" height="204px" viewBox="0 0 186 204" version="1.1" xmlns="http://www.w3.org/2000/svg" xmlns:xlink="http://www.w3.org/1999/xlink">
    <title>Artboard</title>
    <g id="Artboard" stroke="none" stroke-width="1" fill="none" fill-rule="evenodd">
        <g id="Group" transform="translate(-0.500000, -63.000000)" fill="#FFFFFF" fill-rule="nonzero">
            <path d="M36.5514286,162.2 C44.7114286,162.2 51.2114286,159.9 56.0514286,155.3 C60.8914286,150.7 63.3114286,144.48 63.3114286,136.64 L63.3114286,136.64 L50.3514286,136.64 C50.3514286,141.2 49.1314286,144.68 46.6914286,147.08 C44.2514286,149.48 40.8714286,150.68 36.5514286,150.68 C32.1514286,150.68 28.7314286,149.48 26.2914286,147.08 C23.8514286,144.68 22.6314286,141.2 22.6314286,136.64 L22.6314286,136.64 L22.6314286,97.64 C22.6314286,93.16 23.8514286,89.72 26.2914286,87.32 C28.7314286,84.92 32.1514286,83.72 36.5514286,83.72 C40.8714286,83.72 44.2514286,84.92 46.6914286,87.32 C49.1314286,89.72 50.3514286,93.2 50.3514286,97.76 L50.3514286,97.76 L63.3114286,97.76 C63.3114286,89.92 60.8914286,83.7 56.0514286,79.1 C51.2114286,74.5 44.7114286,72.2 36.5514286,72.2 C28.3114286,72.2 21.7714286,74.48 16.9314286,79.04 C12.0914286,83.6 9.67142857,89.84 9.67142857,97.76 L9.67142857,97.76 L9.67142857,136.64 C9.67142857,144.48 12.0914286,150.7 16.9314286,155.3 C21.7714286,159.9 28.3114286,162.2 36.5514286,162.2 Z" id="C"></path>
            <path d="M23.1114286,257 L23.1114286,222.2 L38.8314286,222.2 C44.5114286,222.2 49.4314286,221.12 53.5914286,218.96 C57.7514286,216.8 60.9914286,213.74 63.3114286,209.78 C65.6314286,205.82 66.7914286,201.16 66.7914286,195.8 C66.7914286,190.44 65.6514286,185.78 63.3714286,181.82 C61.0914286,177.86 57.8514286,174.8 53.6514286,172.64 C49.4514286,170.48 44.5114286,169.4 38.8314286,169.4 L38.8314286,169.4 L10.1514286,169.4 L10.1514286,257 L23.1114286,257 Z M38.8314286,210.68 L23.1114286,210.68 L23.1114286,180.92 L38.8314286,180.92 C43.3114286,180.92 46.8914286,182.28 49.5714286,185 C52.2514286,187.72 53.5914286,191.32 53.5914286,195.8 C53.5914286,200.28 52.2514286,203.88 49.5714286,206.6 C46.8914286,209.32 43.3114286,210.68 38.8314286,210.68 L38.8314286,210.68 Z" id="P"></path>
            <path d="M124.607143,257.5 C140.27381,257.5 152.857143,252.875 162.357143,243.625 C171.857143,234.375 176.607143,222 176.607143,206.5 L176.607143,206.5 L176.607143,190.75 C176.607143,175.916667 172.232143,164.041667 163.482143,155.125 C154.732143,146.208333 142.857143,141.416667 127.857143,140.75 L127.857143,140.75 L172.607143,88 L172.607143,72.5 L79.3571429,72.5 L79.3571429,87.5 L154.357143,87.5 L109.107143,141 L109.107143,155.25 L124.607143,155.25 C135.77381,155.25 144.482143,158.375 150.732143,164.625 C156.982143,170.875 160.107143,179.583333 160.107143,190.75 L160.107143,190.75 L160.107143,206.5 C160.107143,217.666667 156.940476,226.5 150.607143,233 C144.27381,239.5 135.607143,242.75 124.607143,242.75 C113.607143,242.75 104.940476,239.541667 98.6071429,233.125 C92.2738095,226.708333 89.1071429,217.833333 89.1071429,206.5 L89.1071429,206.5 L72.6071429,206.5 C72.6071429,222 77.3154762,234.375 86.7321429,243.625 C96.1488095,252.875 108.77381,257.5 124.607143,257.5 Z" id="3"></path>
        </g>
    </g>
</svg>